<svg width="15" height="18" viewBox="0 0 15 18" fill="none" xmlns="http://www.w3.org/2000/svg">
<path d="M11.2242 0.66732C11.2302 0.725225 11.2373 0.806251 11.2425 0.90528C11.2529 1.10225 11.2563 1.3761 11.2275 1.68418C11.172 2.27742 10.9868 3.10933 10.3814 3.71473C9.77601 4.32014 8.94411 4.50527 8.35087 4.56077C8.04279 4.5896 7.76894 4.58621 7.57197 4.5758C7.47294 4.57056 7.39191 4.56348 7.33401 4.55747L7.23405 4.54549C6.96027 4.50569 6.74439 4.29016 6.70459 4.01639L6.69255 3.91601C6.68654 3.85811 6.67946 3.77708 6.67422 3.67805C6.66381 3.48108 6.66042 3.20724 6.68925 2.89915C6.74475 2.30591 6.92989 1.47401 7.53529 0.868603C8.14069 0.263199 8.9726 0.0780614 9.56584 0.0225589C9.87392 -0.00626494 10.1478 -0.00287468 10.3447 0.00753552C10.4438 0.0127693 10.5248 0.0198558 10.5827 0.0258657L10.6827 0.0378466C10.9564 0.0776391 11.1723 0.29317 11.2121 0.566941L11.2242 0.66732Z" fill="#020617"/>
<path d="M1.27382 6.53398C2.09242 5.53305 3.23683 5 4.49203 5C5.32821 5 6.06338 5.33504 6.61678 5.69522C7.20371 6.07723 7.79573 6.07723 8.38266 5.69522C8.93606 5.33504 9.67123 5 10.5074 5C12.0386 5 13.3886 5.79135 14.1961 7.22554C14.2842 7.38196 14.3007 7.5687 14.2416 7.73818C14.1824 7.90766 14.0532 8.04352 13.8869 8.11115C13.0194 8.46394 12.4214 9.29578 12.4214 10.2537C12.4214 11.2989 13.1345 12.195 14.1304 12.4803C14.2942 12.5272 14.4317 12.6389 14.5112 12.7896C14.5906 12.9402 14.6051 13.1168 14.5514 13.2785C14.2077 14.3112 13.6874 15.2907 13.0694 16.0824C12.4583 16.8651 11.7139 17.5118 10.9029 17.8024C9.9429 18.1465 9.04001 17.6474 8.47044 17.2391C8.27877 17.1018 8.08071 16.9777 7.89597 16.8902C7.70268 16.7986 7.57118 16.7697 7.49972 16.7697C7.42826 16.7697 7.29675 16.7986 7.10347 16.8902C6.91873 16.9777 6.72066 17.1018 6.529 17.2391C5.95943 17.6474 5.05653 18.1465 4.09654 17.8024C2.96713 17.3976 1.94991 16.2968 1.22858 15.0302C0.496624 13.7448 0 12.1702 0 10.6744C0 8.94057 0.4617 7.527 1.27382 6.53398Z" fill="#020617"/>
</svg>
