<svg width="16" height="16" viewBox="0 0 16 16" fill="none" xmlns="http://www.w3.org/2000/svg">
<path d="M4.49995 9.9046C4.49989 9.04179 4.49984 8.25053 4.58655 7.60556C4.68208 6.895 4.90684 6.14334 5.52508 5.52511C6.14331 4.90687 6.89497 4.68211 7.60554 4.58658C8.2505 4.49987 9.04176 4.49992 9.90457 4.49998L11.3954 4.49998C11.5927 4.49998 11.6914 4.49998 11.7507 4.43611C11.81 4.37223 11.803 4.27611 11.7888 4.08387C11.7765 3.91695 11.7608 3.75926 11.7407 3.61027C11.6545 2.97057 11.4821 2.43898 11.1145 1.99107C10.9829 1.83073 10.8359 1.6837 10.6755 1.55211C10.2029 1.16424 9.6371 0.993677 8.94978 0.912434C8.28031 0.833299 7.43407 0.833305 6.3659 0.833313H6.30068C5.2325 0.833305 4.38626 0.833299 3.71678 0.912433C3.02947 0.993676 2.46367 1.16423 1.99104 1.55211C1.8307 1.6837 1.68367 1.83073 1.55208 1.99107C1.16421 2.4637 0.993646 3.0295 0.912403 3.71681C0.833269 4.38629 0.833275 5.23252 0.833283 6.3007V6.36592C0.833275 7.43409 0.833268 8.28034 0.912403 8.94981C0.993646 9.63713 1.1642 10.2029 1.55208 10.6756C1.68367 10.8359 1.8307 10.9829 1.99104 11.1145C2.43895 11.4821 2.97054 11.6545 3.61024 11.7407C3.75923 11.7608 3.91692 11.7765 4.08384 11.7888C4.27608 11.803 4.3722 11.8101 4.43607 11.7507C4.49995 11.6914 4.49995 11.5927 4.49995 11.3954V9.9046Z" fill="white"/>
<path fill-rule="evenodd" clip-rule="evenodd" d="M8.36897 6.06066C8.41524 6.41355 8.16668 6.73714 7.81379 6.78341C7.38981 6.83901 7.1791 6.93211 7.04089 7.04581C6.91893 7.14614 6.83311 7.27701 6.77622 7.56022C6.70613 7.90916 6.36644 8.13522 6.0175 8.06513C5.66856 7.99504 5.4425 7.65535 5.51259 7.30641C5.61114 6.81576 5.8127 6.38723 6.22207 6.05046C6.62363 5.72013 7.10612 5.5763 7.64621 5.50548C7.9991 5.45921 8.32269 5.70777 8.36897 6.06066ZM12.2975 6.06066C12.3438 5.70777 12.6674 5.45921 13.0203 5.50548C13.5603 5.5763 14.0428 5.72013 14.4444 6.05046C14.8538 6.38723 15.0553 6.81576 15.1539 7.30641C15.224 7.65535 14.9979 7.99504 14.649 8.06513C14.3 8.13522 13.9603 7.90916 13.8902 7.56022C13.8334 7.27701 13.7475 7.14614 13.6256 7.04581C13.4874 6.93211 13.2767 6.83901 12.8527 6.78341C12.4998 6.73714 12.2512 6.41355 12.2975 6.06066ZM8.72215 6.14445C8.72215 5.78853 9.01067 5.50001 9.36658 5.50001H11.2999C11.6558 5.50001 11.9443 5.78853 11.9443 6.14445C11.9443 6.50036 11.6558 6.78888 11.2999 6.78888H9.36658C9.01067 6.78888 8.72215 6.50036 8.72215 6.14445ZM6.14441 8.72219C6.50032 8.72219 6.78884 9.01071 6.78884 9.36662V11.2999C6.78884 11.6558 6.50032 11.9444 6.14441 11.9444C5.7885 11.9444 5.49997 11.6558 5.49997 11.2999V9.36662C5.49997 9.01071 5.7885 8.72219 6.14441 8.72219ZM14.5221 8.72219C14.878 8.72219 15.1665 9.01071 15.1665 9.36662V11.2999C15.1665 11.6558 14.878 11.9444 14.5221 11.9444C14.1661 11.9444 13.8776 11.6558 13.8776 11.2999V9.36662C13.8776 9.01071 14.1661 8.72219 14.5221 8.72219ZM6.0175 12.6014C6.36644 12.5313 6.70613 12.7574 6.77622 13.1063C6.83311 13.3895 6.91893 13.5204 7.04089 13.6207C7.1791 13.7344 7.38981 13.8275 7.81379 13.8831C8.16668 13.9294 8.41524 14.253 8.36897 14.6059C8.32269 14.9588 7.9991 15.2073 7.64621 15.1611C7.10612 15.0902 6.62363 14.9464 6.22207 14.6161C5.8127 14.2793 5.61114 13.8508 5.51259 13.3601C5.4425 13.0112 5.66856 12.6715 6.0175 12.6014ZM14.649 12.6014C14.9979 12.6715 15.224 13.0112 15.1539 13.3601C15.0553 13.8508 14.8538 14.2793 14.4444 14.6161C14.0428 14.9464 13.5603 15.0902 13.0203 15.1611C12.6674 15.2073 12.3438 14.9588 12.2975 14.6059C12.2512 14.253 12.4998 13.9294 12.8527 13.8831C13.2767 13.8275 13.4874 13.7344 13.6256 13.6207C13.7475 13.5204 13.8334 13.3895 13.8902 13.1063C13.9603 12.7574 14.3 12.5313 14.649 12.6014ZM8.72215 14.5221C8.72215 14.1662 9.01067 13.8777 9.36658 13.8777H11.2999C11.6558 13.8777 11.9443 14.1662 11.9443 14.5221C11.9443 14.878 11.6558 15.1665 11.2999 15.1665H9.36658C9.01067 15.1665 8.72215 14.878 8.72215 14.5221Z" fill="white"/>
</svg>
