<svg width="99" height="126" viewBox="0 0 99 126" fill="none" xmlns="http://www.w3.org/2000/svg">
<path d="M42.4336 29.2441H51.0374C60.4412 29.2441 68.986 33.0875 75.1794 39.281C81.3717 45.4732 85.2163 54.0192 85.2163 63.423C85.2163 72.8269 81.3729 81.3717 75.1794 87.5651C68.9872 93.7573 60.4412 97.6021 51.0374 97.6021H25.5325H20.5737H19.697C17.3658 97.6021 15.4579 95.6941 15.4579 93.363C15.4579 91.0318 17.3658 89.1239 19.697 89.1239H20.5737H25.5325H51.0374C58.1012 89.1239 64.5246 86.2312 69.1857 81.5714C73.8455 76.9115 76.7382 70.4869 76.7382 63.423C76.7382 56.3604 73.8455 49.9358 69.1857 45.2747C64.5258 40.6149 58.1012 37.7222 51.0374 37.7222H42.4336H34.0019H33.9805V25.9457V13.4558V4.22653C33.9805 1.90162 35.8821 0 38.207 0C40.5319 0 42.4336 1.90162 42.4336 4.22653V13.4558V25.9457V29.2441Z" fill="white"/>
<path d="M31.9885 43.8956H38.0275H47.9878C58.7356 43.8956 67.514 52.674 67.514 63.4218C67.514 74.1696 58.7356 82.948 47.9878 82.948H37.5653H32.7911H24.951C22.6198 82.948 20.7119 81.0401 20.7119 78.7089C20.7119 76.3777 22.6198 74.4698 24.951 74.4698H32.6165H37.564H47.9865C54.0556 74.4698 59.0358 69.4884 59.0358 63.4205C59.0358 57.3514 54.0544 52.3712 47.9865 52.3712H38.0262H32.1618H20.8325C18.5013 52.3712 16.5934 50.4633 16.5934 48.1322C16.5934 45.801 18.5013 43.8931 20.8325 43.8931H31.9873L31.9885 43.8956Z" fill="white"/>
<path fill-rule="evenodd" clip-rule="evenodd" d="M26.2396 59.1374H47.9576C50.2825 59.1374 52.1841 61.039 52.1841 63.364C52.1841 65.6889 50.2825 67.5905 47.9576 67.5905H26.2396C23.9147 67.5905 22.0131 65.6889 22.0131 63.364C22.0131 61.039 23.9147 59.1374 26.2396 59.1374Z" fill="white"/>
<path d="M5.8443 112.578H0V125.731H6.01261C9.01953 125.731 10.8797 124.359 10.8797 122.105C10.8797 120.357 9.82715 119.098 8.08002 118.779C9.50812 118.422 10.3723 117.313 10.3723 115.866C10.3723 113.836 8.64398 112.578 5.8443 112.578ZM5.71241 117.952H2.51834V114.758H5.71241C7.00863 114.739 7.79867 115.322 7.79867 116.318C7.79867 117.352 7.00989 117.953 5.71241 117.953V117.952ZM5.71241 123.552H2.51834V120.075H5.71241C7.31008 120.056 8.26842 120.714 8.26842 121.784C8.26842 122.912 7.31008 123.569 5.71241 123.55V123.552Z" fill="white"/>
<path d="M28.2292 125.731L25.3353 121.371C27.0259 120.656 27.9478 119.173 27.9478 117.106C27.9478 114.212 26.0123 112.578 22.6109 112.578H17.1246V125.731H19.643V121.86H22.6122C22.7818 121.86 22.9312 121.86 23.082 121.841L25.3554 125.731H28.2304H28.2292ZM19.6417 114.776H22.6109C24.49 114.776 25.5425 115.564 25.5425 117.181C25.5425 118.834 24.49 119.643 22.6109 119.643H19.6417V114.776Z" fill="white"/>
<path d="M44.771 125.731H47.4765L41.783 112.578H39.1704L33.4015 125.731H36.014C37.7812 121.512 38.3666 120.111 40.4114 115.264C42.5378 120.389 42.9184 121.308 44.771 125.731Z" fill="white"/>
<path d="M49.9233 112.578L55.1283 125.731H57.7409L63.0023 112.578H60.4087L56.4999 122.931L52.6301 112.578H49.9233Z" fill="white"/>
<path d="M74.4522 112.502C70.4869 112.502 67.4436 115.358 67.4436 119.154C67.4436 122.931 70.4882 125.844 74.4522 125.844C78.4175 125.844 81.4609 122.931 81.4609 119.154C81.4609 115.377 78.4162 112.502 74.4522 112.502ZM74.4899 114.757C76.8952 114.757 78.8873 116.674 78.8873 119.154C78.8873 121.635 76.8952 123.589 74.4899 123.589C72.0658 123.589 70.0172 121.635 70.0172 119.154C70.0172 116.674 72.0469 114.757 74.4899 114.757Z" fill="white"/>
<path d="M91.9914 112.502C88.0261 112.502 84.9828 115.358 84.9828 119.154C84.9828 122.931 88.0274 125.844 91.9914 125.844C95.9567 125.844 99.0001 122.931 99.0001 119.154C99.0001 115.377 95.9554 112.502 91.9914 112.502ZM92.0291 114.757C94.4344 114.757 96.4265 116.674 96.4265 119.154C96.4265 121.635 94.4344 123.589 92.0291 123.589C89.605 123.589 87.5564 121.635 87.5564 119.154C87.5564 116.674 89.5861 114.757 92.0291 114.757Z" fill="white"/>
<path fill-rule="evenodd" clip-rule="evenodd" d="M22.6536 0.741028C24.9785 0.741028 26.8802 2.64265 26.8802 4.96756V33.4919C26.8802 35.8168 24.9785 37.7184 22.6536 37.7184C20.3287 37.7184 18.4271 35.8168 18.4271 33.4919V4.96756C18.4271 2.64265 20.3287 0.741028 22.6536 0.741028Z" fill="white"/>
</svg>
